<svg width="87" height="26" viewBox="0 0 87 26" fill="none" xmlns="http://www.w3.org/2000/svg">
<path d="M7.94035 22.4171C8.31525 22.762 8.4877 23.1444 8.45771 23.5643C8.41272 24.0742 8.15779 24.5165 7.69292 24.8914C7.24304 25.2813 6.67319 25.4688 5.98338 25.4538C5.45852 25.4388 4.91117 25.2364 4.34132 24.8465C3.78647 24.4566 3.25412 23.8117 2.74426 22.912C1.94947 21.3824 1.43961 19.5454 1.21467 17.401C0.989732 15.2416 0.937246 13.0971 1.05721 10.9677C1.16219 9.13821 1.31964 7.53365 1.52959 6.15402C1.73953 4.77439 1.94197 3.82215 2.13692 3.2973C2.45184 2.56249 2.9467 2.19509 3.62152 2.19509L3.71149 2.21759C4.4163 2.29257 4.86618 2.62248 5.06113 3.20732C5.25608 3.77717 5.31606 4.53446 5.24108 5.4792C5.21109 5.95907 5.1736 6.47643 5.12861 7.03128V7.14375C4.99365 8.67334 4.89617 9.94799 4.83619 10.9677C4.76121 12.6323 4.77621 14.3043 4.88118 15.9839C4.98615 17.7684 5.1586 19.0805 5.39854 19.9203C5.63847 20.7601 5.9159 21.3074 6.23081 21.5623C6.54573 21.8323 6.86064 21.9972 7.17556 22.0572C7.46048 22.1172 7.71541 22.2372 7.94035 22.4171ZM12.114 22.2372C11.0043 22.2372 10.0896 21.9297 9.36977 21.3149C8.64996 20.7151 8.11011 19.9203 7.75021 18.9306C7.4053 17.9408 7.23285 16.8836 7.23285 15.7589C7.23285 14.0794 7.60025 12.4598 8.33505 10.9002C9.08484 9.34066 10.1795 8.23096 11.6192 7.57114C12.069 7.39119 12.4514 7.30121 12.7663 7.30121C13.1262 7.30121 13.4187 7.37619 13.6436 7.52615C13.8835 7.66111 14.101 7.81107 14.2959 7.97603C14.5509 8.21596 14.8133 8.37342 15.0832 8.4484C16.3129 8.76331 17.2426 9.5731 17.8725 10.8777C18.5023 12.1824 18.8397 13.532 18.8847 14.9266C18.5848 17.221 17.7825 18.983 16.4778 20.2127C15.0682 21.5623 13.6136 22.2372 12.114 22.2372ZM12.159 18.0983C12.309 18.0983 12.4739 18.0533 12.6539 17.9633C13.2087 17.6484 13.6511 17.1835 13.981 16.5687C14.3259 15.9389 14.4984 15.2865 14.4984 14.6117L14.4759 14.1619C14.4009 13.517 14.221 12.9397 13.936 12.4298C13.6661 11.92 13.2087 11.3201 12.5639 10.6303C12.084 10.9602 11.7091 11.5975 11.4392 12.5423C11.1843 13.487 11.0568 14.4393 11.0568 15.399C11.0568 16.1338 11.1393 16.7711 11.3042 17.311C11.4842 17.8359 11.7691 18.0983 12.159 18.0983ZM25.9172 24.1716C24.8225 24.1716 23.8852 23.3544 23.1055 21.7198C22.5956 20.6251 22.0407 18.9681 21.4409 16.7487C21.141 15.549 20.8336 14.5293 20.5187 13.6895C20.1588 12.6997 19.9788 11.905 19.9788 11.3051C19.9788 10.7053 20.1138 10.2704 20.3837 10.0005C20.6536 9.73055 20.9685 9.59559 21.3284 9.59559C21.7033 9.59559 22.0782 9.72305 22.4531 9.97799C22.828 10.2329 23.1055 10.5703 23.2854 10.9902C24.0952 13.0746 24.6875 14.7917 25.0624 16.1413C25.2874 16.9061 25.4748 17.5059 25.6248 17.9408C25.7897 18.3607 25.9622 18.5707 26.1421 18.5707C26.3971 18.5707 26.742 18.0083 27.1769 16.8836C27.5218 16.0288 28.2566 13.9594 29.3813 10.6753C29.6962 9.82053 30.0636 9.2057 30.4835 8.8308C30.9033 8.4409 31.3157 8.24596 31.7206 8.24596C32.1255 8.24596 32.4704 8.41091 32.7553 8.74082C33.0403 9.05574 33.1827 9.48312 33.1827 10.023C33.1827 10.2779 33.1377 10.5553 33.0478 10.8552C32.5079 12.7597 31.9231 14.6342 31.2932 16.4787C30.6784 18.3082 30.0186 19.8903 29.3138 21.2249C28.624 22.5746 27.9042 23.4518 27.1544 23.8567C26.7045 24.0667 26.2921 24.1716 25.9172 24.1716ZM53.9001 23.0469C53.1204 23.0469 52.1906 22.7545 51.1109 22.1697C50.2111 21.6298 49.5888 21.18 49.2439 20.82C49.1239 20.6851 49.034 20.6176 48.974 20.6176C48.899 20.6176 48.7865 20.6626 48.6366 20.7526C48.3816 20.9175 47.5419 21.2099 46.1173 21.6298C44.8876 21.9597 43.7479 22.1247 42.6982 22.1247C40.8687 22.1247 39.3091 21.7273 38.0194 20.9325C36.7448 20.1227 35.7701 19.103 35.0952 17.8733C34.4204 16.6437 34.083 15.384 34.083 14.0944C34.083 12.6398 34.5404 11.3126 35.4551 10.1129C36.3699 8.89828 37.7945 8.0885 39.729 7.68361C40.0289 7.62362 40.3213 7.59363 40.6062 7.59363C41.611 7.59363 42.4957 7.89355 43.2605 8.49339C44.0253 9.09323 44.4077 9.90301 44.4077 10.9227C44.4077 11.2526 44.3552 11.6125 44.2503 12.0024C43.8154 13.2921 43.1481 14.2068 42.2483 14.7467C41.3635 15.2865 40.5463 15.6539 39.7965 15.8489C39.4666 15.9539 39.1966 16.0513 38.9867 16.1413C38.7917 16.2313 38.6943 16.3363 38.6943 16.4562C38.6943 16.5312 38.7393 16.6212 38.8292 16.7262C39.9539 17.9408 41.356 18.5482 43.0356 18.5482C44.2653 18.5482 45.5324 18.2707 46.8371 17.7159C47.017 17.6259 47.107 17.431 47.107 17.131C47.107 16.9511 47.092 16.7337 47.062 16.4787C47.002 16.1188 46.972 15.6839 46.972 15.1741C46.972 14.5143 47.107 13.7345 47.3769 12.8347C47.6468 11.935 48.2092 10.9452 49.064 9.86552C49.6938 9.10072 50.3461 8.54587 51.0209 8.20097C51.6957 7.84107 52.3406 7.66111 52.9554 7.66111C53.8851 7.66111 54.6724 8.00602 55.3173 8.69583C55.9621 9.37065 56.2845 10.2629 56.2845 11.3726C56.2845 12.2124 56.0521 13.1421 55.5872 14.1619C55.0173 15.4065 54.0726 16.6437 52.753 17.8733C52.408 18.1583 52.2356 18.3757 52.2356 18.5257C52.2356 18.6156 52.2956 18.7056 52.4155 18.7956C52.8504 19.1555 53.2253 19.3954 53.5402 19.5154C53.8552 19.6354 54.1401 19.7178 54.395 19.7628C54.6649 19.7928 54.9349 19.8678 55.2048 19.9878C55.8496 20.3177 56.172 20.7676 56.172 21.3374C56.172 21.7573 55.9696 22.1472 55.5647 22.5071C55.1598 22.867 54.605 23.0469 53.9001 23.0469ZM38.6718 13.0821C38.8967 13.0821 39.1142 13.0147 39.3241 12.8797L39.504 12.7897C40.0889 12.5348 40.5013 12.2724 40.7412 12.0024C40.9961 11.7175 41.1236 11.4776 41.1236 11.2826C41.1236 11.0277 40.9587 10.8852 40.6287 10.8552C40.1189 10.8552 39.534 11.2152 38.8742 11.935L38.7393 12.0699C38.4693 12.3548 38.3344 12.6098 38.3344 12.8347L38.3569 13.0147C38.4618 13.0597 38.5668 13.0821 38.6718 13.0821ZM50.9534 14.9941C50.9984 14.9941 51.0584 14.9566 51.1334 14.8817C51.8232 14.1619 52.3106 13.487 52.5955 12.8572C52.8954 12.2274 53.0454 11.755 53.0454 11.4401C53.0454 11.2301 52.9929 11.1177 52.8879 11.1027L52.7979 11.1252C52.1981 11.4701 51.7182 12.0549 51.3583 12.8797C50.9984 13.7045 50.8185 14.3118 50.8185 14.7017C50.8185 14.8817 50.8635 14.9791 50.9534 14.9941ZM61.7137 21C61.0539 21 60.5815 20.8126 60.2966 20.4377C60.0117 20.0628 59.8692 19.6504 59.8692 19.2005C59.8692 18.6906 60.0117 18.2258 60.2966 17.8059C60.5815 17.371 60.9789 17.1385 61.4888 17.1086C62.3135 17.1086 62.9209 17.3035 63.3108 17.6934C63.7007 18.0833 63.8956 18.5182 63.8956 18.998C63.8956 19.4629 63.7082 19.8978 63.3333 20.3027C62.9734 20.6926 62.4335 20.925 61.7137 21ZM69.1696 22.3946C68.7498 22.3946 68.3299 22.2297 67.91 21.8998C67.4901 21.5848 67.1377 21.0525 66.8528 20.3027C66.5379 19.3429 66.3804 17.7834 66.3804 15.624C66.3804 14.7392 66.4104 13.9444 66.4704 13.2396C66.5304 12.5198 66.5978 12.0699 66.6728 11.89C67.0027 11.2901 67.4826 10.9902 68.1124 10.9902C68.5323 10.9902 68.9147 11.1327 69.2596 11.4176C69.6195 11.7025 69.822 12.0699 69.867 12.5198C69.9419 14.4393 69.9794 15.8714 69.9794 16.8161C69.9944 17.461 70.0094 17.9708 70.0244 18.3457C70.0394 18.7056 70.0844 18.9905 70.1594 19.2005C70.2494 19.4104 70.3768 19.6054 70.5418 19.7853C70.8267 20.1302 70.9692 20.4676 70.9692 20.7976C70.9692 21.2324 70.7892 21.6073 70.4293 21.9223C70.0694 22.2372 69.6495 22.3946 69.1696 22.3946ZM68.8772 7.95353C68.0674 7.95353 67.5876 7.44367 67.4376 6.42395L67.4151 6.26649C67.4151 5.74163 67.67 5.22427 68.1799 4.71441C68.7048 4.20455 69.2821 3.94962 69.9119 3.94962C70.1969 3.94962 70.4743 4.0246 70.7442 4.17456C71.3291 4.56445 71.6215 4.99933 71.6215 5.4792C71.6215 6.07904 71.3141 6.64139 70.6992 7.16625C70.0994 7.69111 69.4921 7.95353 68.8772 7.95353ZM85.2156 22.3946C84.7208 22.3946 84.2709 22.1772 83.866 21.7423C83.5211 21.2924 83.2811 20.8126 83.1462 20.3027C83.0262 19.7778 82.9437 19.2155 82.8987 18.6156C82.8538 18.0008 82.7563 17.341 82.6063 16.6362C82.4114 16.6662 82.2089 16.8836 81.999 17.2885C81.819 17.7534 81.3092 18.5032 80.4694 19.5379C79.0598 21.1425 77.6427 21.9447 76.2181 21.9447C74.9884 21.9447 73.9612 21.4199 73.1364 20.3702C72.3116 19.3055 71.8992 18.0608 71.8992 16.6362C71.8992 15.7364 72.0942 14.8217 72.4841 13.8919C73.3388 11.8525 75.1159 10.2629 77.8151 9.12322C78.8198 8.73332 79.6671 8.53838 80.3569 8.53838C80.4469 8.53838 80.5294 8.54587 80.6044 8.56087H80.8068C81.0018 8.56087 81.1517 8.51588 81.2567 8.42591C81.3617 8.32093 81.4441 8.096 81.5041 7.75109C81.5791 7.39119 81.6616 6.83634 81.7516 6.08654C81.8415 5.33674 81.984 4.32452 82.1789 3.04986C82.2989 2.34505 82.5313 1.82769 82.8763 1.49778C83.2362 1.15288 83.6335 0.980424 84.0684 0.980424C84.4583 0.980424 84.8332 1.10789 85.1931 1.36282C85.793 1.87268 86.1604 2.98988 86.2953 4.71441C86.4003 6.12403 86.4528 7.7211 86.4528 9.50561V10.7203C86.4528 12.3248 86.4753 13.9294 86.5203 15.534C86.5802 17.1385 86.7152 18.6381 86.9252 20.0328C86.9551 20.1977 86.9701 20.3552 86.9701 20.5051C86.9701 21.12 86.7902 21.5848 86.4303 21.8998C86.0704 22.2297 85.6655 22.3946 85.2156 22.3946ZM76.353 18.2782C77.1328 18.2782 78.0401 17.3335 79.0748 15.444C79.4497 14.7542 79.7871 14.0644 80.087 13.3746C80.3869 12.6698 80.5369 12.1449 80.5369 11.8C80.5369 11.59 80.4619 11.4851 80.3119 11.4851L80.1545 11.5076C79.0298 11.9574 78.1225 12.5048 77.4327 13.1496C76.7579 13.7945 76.263 14.4618 75.9481 15.1516C75.6482 15.8414 75.4982 16.4487 75.4982 16.9736C75.4982 17.3635 75.5732 17.6784 75.7232 17.9183C75.8731 18.1583 76.0831 18.2782 76.353 18.2782Z" fill="black"/>
</svg>
